<svg aria-hidden="true" style="position: absolute; width: 0; height: 0; overflow: hidden;" version="1.1" xmlns="http://www.w3.org/2000/svg" xmlns:xlink="http://www.w3.org/1999/xlink">
<defs>
<symbol id="icon-win" viewBox="0 0 32 32">
<path stroke-linejoin="round" stroke-linecap="round" stroke-miterlimit="4" stroke-width="1.1111" d="M4.035 3.68h-1.78c-0.955 0-1.728 0.887-1.728 1.981v0.003c0 3.949 1.687 7.591 4.309 9.968"></path>
<path stroke-linejoin="round" stroke-linecap="round" stroke-miterlimit="4" stroke-width="1.1111" d="M27.895 3.68h1.781c0.954 0 1.727 0.887 1.727 1.981v0.003c0 3.949-1.687 7.591-4.309 9.968"></path>
<path stroke-linejoin="round" stroke-linecap="round" stroke-miterlimit="4" stroke-width="1.1111" d="M8.26 30.185h15.411"></path>
<path stroke-linejoin="round" stroke-linecap="round" stroke-miterlimit="4" stroke-width="1.1111" d="M15.965 21.297v8.889"></path>
</symbol>
<symbol id="icon-car" viewBox="0 0 32 32">
<path fill="none" stroke="#231f20" style="stroke: var(--color1, #231f20)" stroke-linejoin="round" stroke-linecap="round" stroke-miterlimit="4" stroke-width="1.1111" d="M1.228 22.308v-21.538h22.274c0.625 0 1.176 0.589 1.352 1.446l1.797 10.794 3.326 1.734c0.447 0.354 0.725 1.028 0.725 1.758v5.806"></path>
<path fill="none" stroke="#231f20" style="stroke: var(--color1, #231f20)" stroke-linejoin="round" stroke-linecap="round" stroke-miterlimit="4" stroke-width="1.1111" d="M15.965 22.308v-17.435"></path>
<path fill="none" stroke="#231f20" style="stroke: var(--color1, #231f20)" stroke-linejoin="round" stroke-linecap="round" stroke-miterlimit="4" stroke-width="1.1111" d="M27.594 26.41h3.809"></path>
<path fill="none" stroke="#231f20" style="stroke: var(--color1, #231f20)" stroke-linejoin="round" stroke-linecap="round" stroke-miterlimit="4" stroke-width="1.1111" d="M11.352 26.41h9.226"></path>
<path fill="none" stroke="#231f20" style="stroke: var(--color1, #231f20)" stroke-linejoin="round" stroke-linecap="round" stroke-miterlimit="4" stroke-width="1.1111" d="M0.526 26.41h3.808"></path>
<path fill="none" stroke="#231f20" style="stroke: var(--color1, #231f20)" stroke-linejoin="round" stroke-linecap="round" stroke-miterlimit="4" stroke-width="1.1111" d="M11.353 26.41c0 2.832-1.571 5.128-3.508 5.128s-3.509-2.295-3.509-5.128c0-2.832 1.572-5.128 3.509-5.128s3.508 2.295 3.508 5.128z"></path>
<path d="M9.16 26.41c0 1.061-0.589 1.923-1.316 1.923s-1.316-0.862-1.316-1.923c0-1.061 0.589-1.923 1.316-1.923s1.316 0.861 1.316 1.923z"></path>
<path fill="none" stroke="#231f20" style="stroke: var(--color1, #231f20)" stroke-linejoin="round" stroke-linecap="round" stroke-miterlimit="4" stroke-width="1.1111" d="M27.595 26.41c0 2.832-1.571 5.128-3.508 5.128-1.938 0-3.509-2.295-3.509-5.128s1.572-5.128 3.509-5.128c1.937 0 3.508 2.295 3.508 5.128z"></path>
<path d="M25.402 26.41c0 1.061-0.59 1.923-1.316 1.923s-1.316-0.862-1.316-1.923c0-1.061 0.589-1.923 1.316-1.923s1.316 0.861 1.316 1.923z"></path>
<path fill="none" stroke="#231f20" style="stroke: var(--color1, #231f20)" stroke-linejoin="round" stroke-linecap="round" stroke-miterlimit="4" stroke-width="1.1111" d="M26.651 13.008h-6.812v-8.138h5.457"></path>
</symbol>
<symbol id="icon-service" viewBox="0 0 32 32">
<path stroke-linejoin="round" stroke-linecap="round" stroke-miterlimit="4" stroke-width="1.1111" d="M20.6 5.162c0 2.56-2.075 4.635-4.635 4.635s-4.636-2.075-4.636-4.635c0-2.56 2.076-4.635 4.636-4.635s4.635 2.075 4.635 4.635z"></path>
<path stroke-linejoin="round" stroke-linecap="round" stroke-miterlimit="4" stroke-width="1.1111" d="M0.527 31.177h30.877"></path>
<path stroke-linejoin="round" stroke-linecap="round" stroke-miterlimit="4" stroke-width="1.1111" d="M23.436 28.37v-5.836c0-0.853-0.692-1.544-1.544-1.544h-11.854c-0.853 0-1.543 0.691-1.543 1.544v5.836"></path>
<path stroke-linejoin="round" stroke-linecap="round" stroke-miterlimit="4" stroke-width="1.1111" d="M27.664 28.338c0.851-0.983 1.085-2.357 0.607-3.566l-2.707-6.849c-0.932-2.356-3.208-3.904-5.743-3.904h-7.712c-2.535 0-4.812 1.548-5.743 3.904l-2.708 6.849c-0.478 1.209-0.243 2.583 0.608 3.566"></path>
</symbol>
<symbol id="icon-medal" viewBox="0 0 32 32">
<path stroke-linejoin="round" stroke-linecap="round" stroke-miterlimit="4" stroke-width="1.1111" d="M28.805 11.703c0 6.173-5.941 11.177-13.273 11.177-7.329 0-13.271-5.004-13.271-11.177s5.942-11.177 13.271-11.177c7.331 0 13.273 5.004 13.273 11.177z"></path>
<path stroke-linejoin="round" stroke-linecap="round" stroke-miterlimit="4" stroke-width="1.1111" d="M12.199 25.807l-3.382 5.597-2.026-5.157-6.166 1.694 3.381-5.595"></path>
<path stroke-linejoin="round" stroke-linecap="round" stroke-miterlimit="4" stroke-width="1.1111" d="M18.866 25.807l3.383 5.597 2.026-5.157 6.166 1.694-3.381-5.595"></path>
</symbol>
<symbol id="icon-cycle" viewBox="0 0 32 32">
<path fill="none" stroke="#2468ff" style="stroke: var(--color2, #2468ff)" stroke-linejoin="miter" stroke-linecap="butt" stroke-miterlimit="4" stroke-width="0.8101" d="M21.463 0.39h-10.927c-5.604 0-10.146 4.543-10.146 10.146v10.927c0 5.604 4.543 10.146 10.146 10.146h10.927c5.604 0 10.146-4.543 10.146-10.146v-10.927c0-5.604-4.543-10.146-10.146-10.146z"></path>
<path fill="none" stroke="#2468ff" style="stroke: var(--color2, #2468ff)" stroke-linejoin="round" stroke-linecap="round" stroke-miterlimit="4" stroke-width="0.8101" d="M8.973 14.46v-1.932c0-2.178 1.631-3.943 3.643-3.943h6.671c2.012 0 3.643 1.765 3.643 3.943v1.932"></path>
<path fill="none" stroke="#2468ff" style="stroke: var(--color2, #2468ff)" stroke-linejoin="round" stroke-linecap="round" stroke-miterlimit="4" stroke-width="0.8101" d="M8.973 16.138v3.611c0 2.177 1.631 3.943 3.643 3.943h6.671c2.012 0 3.643-1.765 3.643-3.943v-3.611"></path>
<path fill="none" stroke="#2468ff" style="stroke: var(--color2, #2468ff)" stroke-linejoin="round" stroke-linecap="round" stroke-miterlimit="4" stroke-width="0.8101" d="M10.738 12.55l-1.765 1.91-1.765-1.91"></path>
<path fill="none" stroke="#2468ff" style="stroke: var(--color2, #2468ff)" stroke-linejoin="round" stroke-linecap="round" stroke-miterlimit="4" stroke-width="0.8101" d="M21.165 18.048l1.765-1.91 1.765 1.91"></path>
</symbol>
<symbol id="icon-shield" viewBox="0 0 32 32">
<path fill="none" stroke="#2468ff" style="stroke: var(--color2, #2468ff)" stroke-linejoin="round" stroke-linecap="round" stroke-miterlimit="4" stroke-width="0.8101" d="M12.479 15.473l2.328 2.322 4.815-4.803"></path>
<path fill="none" stroke="#2468ff" style="stroke: var(--color2, #2468ff)" stroke-linejoin="round" stroke-linecap="round" stroke-miterlimit="4" stroke-width="0.8101" d="M16.541 26.712c1.902-1.050 8.687-5.634 8.953-17.719 0.009-0.437-0.265-0.844-0.679-0.987-2.573-0.887-5.566-1.4-8.767-1.4h0.003c-3.2 0-6.193 0.513-8.767 1.4-0.415 0.143-0.689 0.55-0.679 0.987 0.267 12.086 7.052 16.67 8.953 17.719 0.15 0.084 0.319 0.128 0.491 0.128s0.341-0.044 0.491-0.128l-0 0z"></path>
<path fill="none" stroke="#2468ff" style="stroke: var(--color2, #2468ff)" stroke-linejoin="miter" stroke-linecap="butt" stroke-miterlimit="4" stroke-width="0.8101" d="M21.463 0.39h-10.927c-5.604 0-10.146 4.543-10.146 10.146v10.927c0 5.604 4.543 10.146 10.146 10.146h10.927c5.604 0 10.146-4.543 10.146-10.146v-10.927c0-5.604-4.543-10.146-10.146-10.146z"></path>
</symbol>
<symbol id="icon-finger" viewBox="0 0 32 32">
<path fill="none" stroke="#2468ff" style="stroke: var(--color2, #2468ff)" stroke-linejoin="round" stroke-linecap="round" stroke-miterlimit="4" stroke-width="0.8101" d="M23.668 19.063c0-1.86-1.506-3.369-3.363-3.369h-3.671l-0.509-6.595c-0.024-0.296-0.162-0.572-0.385-0.769s-0.512-0.301-0.81-0.289-0.578 0.137-0.785 0.351c-0.207 0.214-0.323 0.499-0.324 0.796l0.010 13.244-2.341-2.050c-0.44-0.386-1.003-0.604-1.588-0.615s-1.156 0.184-1.611 0.553c0 0 4.103 5.015 7.038 6.406"></path>
<path fill="none" stroke="#2468ff" style="stroke: var(--color2, #2468ff)" stroke-linejoin="round" stroke-linecap="round" stroke-miterlimit="4" stroke-width="0.8101" d="M11.106 11.369v-3.597c-0-0.586 0.232-1.149 0.646-1.564s0.976-0.648 1.563-0.649h3.314c0.29 0 0.578 0.058 0.846 0.169s0.512 0.274 0.717 0.48c0.205 0.205 0.368 0.449 0.479 0.718s0.168 0.556 0.168 0.846v3.597"></path>
<path fill="none" stroke="#2468ff" style="stroke: var(--color2, #2468ff)" stroke-linejoin="miter" stroke-linecap="butt" stroke-miterlimit="4" stroke-width="0.8101" d="M21.463 0.39h-10.927c-5.604 0-10.146 4.543-10.146 10.146v10.927c0 5.604 4.543 10.146 10.146 10.146h10.927c5.604 0 10.146-4.543 10.146-10.146v-10.927c0-5.604-4.543-10.146-10.146-10.146z"></path>
</symbol>
<symbol id="icon-wifi" viewBox="0 0 32 32">
<path fill="none" stroke="#fefefe" style="stroke: var(--color3, #fefefe)" stroke-linejoin="miter" stroke-linecap="butt" stroke-miterlimit="4" stroke-width="0.6076" d="M10.537 0.39h10.927c5.604 0 10.146 4.543 10.146 10.146v10.927c0 5.603-4.543 10.146-10.146 10.146h-10.927c-5.604 0-10.146-4.543-10.146-10.146v-10.927c0-5.604 4.543-10.146 10.146-10.146z"></path>
<path fill="none" stroke="#fefefe" style="stroke: var(--color3, #fefefe)" stroke-linejoin="miter" stroke-linecap="butt" stroke-miterlimit="4" stroke-width="0.6076" d="M18.721 10.267c-0.804-0.475-1.74-0.748-2.741-0.748-0.994 0-1.925 0.269-2.725 0.738"></path>
<path fill="none" stroke="#fefefe" style="stroke: var(--color3, #fefefe)" stroke-linejoin="miter" stroke-linecap="butt" stroke-miterlimit="4" stroke-width="0.6076" d="M20.725 8.408c-1.333-0.977-2.978-1.553-4.756-1.553-1.762 0-3.392 0.565-4.718 1.525"></path>
<path fill="none" stroke="#fefefe" style="stroke: var(--color3, #fefefe)" stroke-linejoin="miter" stroke-linecap="butt" stroke-miterlimit="4" stroke-width="0.6076" d="M18.035 24.754h-4.071c-2.115 0-3.829-1.714-3.829-3.829v-4.071c0-2.115 1.714-3.829 3.829-3.829h4.071c2.115 0 3.829 1.715 3.829 3.829v4.071c0 2.115-1.714 3.829-3.829 3.829z"></path>
<path fill="none" stroke="#fefefe" style="stroke: var(--color3, #fefefe)" stroke-linejoin="miter" stroke-linecap="butt" stroke-miterlimit="4" stroke-width="0.6076" d="M14.287 18.89c0-0.946 0.767-1.714 1.713-1.714s1.713 0.767 1.713 1.714c0 0.946-0.767 1.714-1.713 1.714s-1.713-0.767-1.713-1.714z"></path>
</symbol>
<symbol id="icon-lamp" viewBox="0 0 32 32">
<path stroke-linejoin="miter" stroke-linecap="butt" stroke-miterlimit="4" stroke-width="0.4051" d="M21.463 0.643h-10.927c-5.604 0-10.146 4.488-10.146 10.024v10.795c0 5.536 4.543 10.024 10.146 10.024h10.927c5.604 0 10.146-4.488 10.146-10.024v-10.795c0-5.536-4.543-10.024-10.146-10.024z"></path>
<path fill="none" stroke="#fff" style="stroke: var(--color4, #fff)" stroke-linejoin="round" stroke-linecap="round" stroke-miterlimit="4" stroke-width="0.638" d="M12.594 21.257h6.492"></path>
<path fill="none" stroke="#fff" style="stroke: var(--color4, #fff)" stroke-linejoin="round" stroke-linecap="round" stroke-miterlimit="4" stroke-width="0.638" d="M13.522 22.876h4.638"></path>
<path fill="none" stroke="#fff" style="stroke: var(--color4, #fff)" stroke-linejoin="round" stroke-linecap="round" stroke-miterlimit="4" stroke-width="0.638" d="M17.232 24.495h-2.782"></path>
<path fill="none" stroke="#fff" style="stroke: var(--color4, #fff)" stroke-linejoin="round" stroke-linecap="round" stroke-miterlimit="4" stroke-width="0.638" d="M19.060 19.637c0-0.871 0.218-1.729 0.635-2.498l1.373-2.537c0.008-0.015 0.017-0.029 0.024-0.044l0.009-0.017h-0.003c0.287-0.604 0.437-1.262 0.437-1.929 0-2.778-2.549-5.030-5.694-5.030s-5.694 2.252-5.694 5.030c0 0.684 0.157 1.335 0.437 1.929h-0.002l0.009 0.017c0.007 0.015 0.016 0.030 0.025 0.045l1.372 2.536c0.417 0.769 0.635 1.627 0.635 2.499"></path>
</symbol>
<symbol id="icon-clock" viewBox="0 0 32 32">
<path fill="none" stroke="#fff" style="stroke: var(--color4, #fff)" stroke-linejoin="miter" stroke-linecap="butt" stroke-miterlimit="4" stroke-width="0.4051" d="M21.463 0.643h-10.927c-5.604 0-10.146 4.488-10.146 10.024v10.795c0 5.536 4.543 10.024 10.146 10.024h10.927c5.604 0 10.146-4.488 10.146-10.024v-10.795c0-5.536-4.543-10.024-10.146-10.024z"></path>
<path fill="none" stroke="#fff" style="stroke: var(--color4, #fff)" stroke-linejoin="round" stroke-linecap="round" stroke-miterlimit="4" stroke-width="0.638" d="M22.104 22.095c-3.36 3.32-8.809 3.32-12.169 0s-3.361-8.702 0-12.022c3.36-3.32 8.809-3.32 12.169 0s3.36 8.703 0 12.022z"></path>
<path fill="none" stroke="#fff" style="stroke: var(--color4, #fff)" stroke-linejoin="round" stroke-linecap="round" stroke-miterlimit="4" stroke-width="0.638" d="M18.627 20.205c-0.342 0.342-0.748 0.614-1.197 0.8s-0.93 0.283-1.416 0.285-0.968-0.092-1.418-0.275c-0.45-0.183-0.858-0.452-1.202-0.792s-0.616-0.744-0.802-1.188c-0.185-0.444-0.28-0.92-0.278-1.401s0.1-0.956 0.288-1.399c0.188-0.443 0.464-0.845 0.81-1.182 0.693-0.675 1.629-1.053 2.602-1.049s1.906 0.387 2.595 1.067c0.689 0.68 1.077 1.602 1.080 2.564s-0.378 1.886-1.062 2.571z"></path>
<path fill="none" stroke="#fff" style="stroke: var(--color4, #fff)" stroke-linejoin="round" stroke-linecap="round" stroke-miterlimit="4" stroke-width="0.638" d="M16.020 16.415v2.429"></path>
<path fill="none" stroke="#fff" style="stroke: var(--color4, #fff)" stroke-linejoin="round" stroke-linecap="round" stroke-miterlimit="4" stroke-width="0.638" d="M16.889 11.621c-0.231 0.224-0.543 0.349-0.867 0.348s-0.635-0.129-0.864-0.356c-0.229-0.226-0.359-0.533-0.36-0.853s0.125-0.628 0.352-0.857c0.231-0.224 0.543-0.349 0.867-0.348s0.635 0.129 0.864 0.356c0.229 0.226 0.359 0.533 0.36 0.853s-0.125 0.628-0.352 0.857v0z"></path>
</symbol>
<symbol id="icon-twitter" viewBox="0 0 32 32">
<path fill="#fff" style="fill: var(--color4, #fff)" d="M32 5.824c-1.176 0.535-2.442 0.898-3.77 1.059 1.356-0.832 2.397-2.151 2.887-3.723-1.27 0.77-2.673 1.331-4.172 1.631-1.195-1.308-2.902-2.124-4.791-2.124-3.623 0-6.563 3.014-6.563 6.732 0 0.528 0.056 1.040 0.169 1.533-5.456-0.281-10.293-2.958-13.533-7.036-0.565 0.998-0.888 2.155-0.888 3.388 0 2.334 1.159 4.395 2.921 5.603-1.074-0.033-2.089-0.339-2.975-0.84v0.083c0 3.263 2.263 5.984 5.269 6.601-0.55 0.158-1.131 0.237-1.73 0.237-0.423 0-0.836-0.041-1.236-0.119 0.836 2.674 3.259 4.621 6.133 4.673-2.246 1.807-5.079 2.883-8.154 2.883-0.53 0-1.054-0.031-1.566-0.092 2.906 1.907 6.358 3.022 10.064 3.022 12.077 0 18.679-10.256 18.679-19.153 0-0.293-0.006-0.586-0.017-0.873 1.283-0.95 2.397-2.134 3.274-3.484z"></path>
</symbol>
<symbol id="icon-pinterest" viewBox="0 0 32 32">
<path fill="#fff" style="fill: var(--color4, #fff)" d="M16.001 0c-8.836 0-16.001 7.163-16.001 16.001 0 6.55 3.94 12.179 9.579 14.654-0.045-1.116-0.008-2.459 0.277-3.675 0.309-1.298 2.058-8.717 2.058-8.717s-0.51-1.022-0.51-2.533c0-2.371 1.375-4.141 3.086-4.141 1.454 0 2.158 1.093 2.158 2.403 0 1.462-0.933 3.65-1.413 5.677-0.401 1.699 0.85 3.082 2.525 3.082 3.031 0 5.073-3.893 5.073-8.507 0-3.505-2.361-6.13-6.657-6.13-4.852 0-7.876 3.618-7.876 7.66 0 1.396 0.41 2.378 1.054 3.138 0.297 0.352 0.337 0.491 0.229 0.894-0.075 0.292-0.252 1.003-0.325 1.283-0.107 0.404-0.435 0.551-0.8 0.401-2.237-0.913-3.278-3.361-3.278-6.113 0-4.544 3.833-9.997 11.434-9.997 6.11 0 10.13 4.424 10.13 9.167 0 6.277-3.489 10.966-8.635 10.966-1.725 0-3.351-0.933-3.908-1.993 0 0-0.93 3.686-1.125 4.397-0.339 1.232-1.003 2.467-1.611 3.426 1.439 0.425 2.96 0.657 4.535 0.657 8.836 0 15.999-7.163 15.999-15.999 0-8.838-7.163-16.001-15.999-16.001z"></path>
</symbol>
<symbol id="icon-linkedin" viewBox="0 0 32 32">
<path fill="#fff" style="fill: var(--color4, #fff)" d="M3.767 8.311h-0.045c-2.258 0-3.722-1.511-3.722-3.426 0-1.952 1.507-3.431 3.81-3.431 2.301 0 3.716 1.475 3.761 3.426 0 1.915-1.46 3.431-3.804 3.431zM32 30.545h-7.072v-10.227c0-2.677-1.106-4.504-3.539-4.504-1.861 0-2.895 1.233-3.377 2.422-0.159 0.376-0.156 0.881-0.153 1.402v0c0 0.071 0.001 0.142 0.001 0.213v10.694h-7.007c0 0 0.090-18.116 0-19.762h7.007v3.101c0.414-1.356 2.653-3.291 6.226-3.291 4.433 0 7.915 2.843 7.915 8.964v10.988zM7.044 10.783h-6.237v19.762h6.237v-19.762z"></path>
</symbol>
<symbol id="icon-instagram" viewBox="0 0 32 32">
<path fill="#fff" style="fill: var(--color4, #fff)" d="M16 0c-4.345 0-4.89 0.018-6.597 0.096-1.703 0.078-2.866 0.348-3.884 0.744-1.052 0.409-1.944 0.956-2.834 1.845s-1.437 1.782-1.845 2.834c-0.396 1.018-0.666 2.181-0.744 3.884-0.078 1.707-0.096 2.251-0.096 6.597s0.018 4.89 0.096 6.597c0.078 1.703 0.348 2.866 0.744 3.884 0.409 1.052 0.956 1.944 1.845 2.834s1.782 1.437 2.834 1.846c1.018 0.395 2.181 0.666 3.884 0.744 1.707 0.078 2.251 0.096 6.597 0.096s4.89-0.018 6.597-0.096c1.703-0.078 2.866-0.348 3.884-0.744 1.052-0.409 1.944-0.956 2.834-1.846s1.437-1.782 1.846-2.834c0.395-1.018 0.666-2.181 0.744-3.884 0.078-1.707 0.096-2.252 0.096-6.597s-0.018-4.89-0.096-6.597c-0.078-1.703-0.348-2.866-0.744-3.884-0.409-1.052-0.956-1.944-1.846-2.834s-1.782-1.437-2.834-1.845c-1.018-0.396-2.181-0.666-3.884-0.744-1.707-0.078-2.252-0.096-6.597-0.096zM16 2.883c4.272 0 4.778 0.016 6.465 0.093 1.56 0.071 2.407 0.332 2.971 0.551 0.747 0.29 1.28 0.637 1.84 1.197s0.907 1.093 1.197 1.84c0.219 0.564 0.48 1.411 0.551 2.971 0.077 1.687 0.093 2.193 0.093 6.465s-0.016 4.778-0.093 6.465c-0.071 1.56-0.332 2.407-0.551 2.971-0.29 0.747-0.637 1.28-1.197 1.84s-1.093 0.907-1.84 1.197c-0.564 0.219-1.411 0.48-2.971 0.551-1.687 0.077-2.193 0.093-6.465 0.093s-4.778-0.016-6.465-0.093c-1.56-0.071-2.407-0.332-2.971-0.551-0.747-0.29-1.28-0.637-1.84-1.197s-0.907-1.093-1.197-1.84c-0.219-0.564-0.48-1.411-0.551-2.971-0.077-1.687-0.093-2.193-0.093-6.465s0.016-4.778 0.093-6.465c0.071-1.56 0.332-2.407 0.551-2.971 0.29-0.747 0.637-1.28 1.197-1.84s1.093-0.907 1.84-1.197c0.564-0.219 1.411-0.48 2.971-0.551 1.687-0.077 2.193-0.093 6.465-0.093zM7.784 16c0-4.538 3.679-8.216 8.216-8.216s8.216 3.678 8.216 8.216c0 4.538-3.678 8.216-8.216 8.216s-8.216-3.678-8.216-8.216zM16 21.333c-2.945 0-5.333-2.388-5.333-5.333s2.388-5.333 5.333-5.333c2.945 0 5.333 2.388 5.333 5.333s-2.388 5.333-5.333 5.333zM24.541 9.379c1.060 0 1.92-0.86 1.92-1.92s-0.86-1.92-1.92-1.92c-1.060 0-1.92 0.86-1.92 1.92s0.86 1.92 1.92 1.92z"></path>
</symbol>
<symbol id="icon-facebook" viewBox="0 0 32 32">
<path fill="#fff" style="fill: var(--color4, #fff)" d="M17.092 32h-15.326c-0.976 0-1.766-0.791-1.766-1.766v-28.468c0-0.976 0.791-1.766 1.766-1.766h28.468c0.975 0 1.766 0.791 1.766 1.766v28.468c0 0.975-0.791 1.766-1.766 1.766h-8.154v-12.392h4.159l0.623-4.829h-4.782v-3.083c0-1.398 0.388-2.351 2.393-2.351l2.557-0.001v-4.319c-0.442-0.059-1.96-0.19-3.727-0.19-3.687 0-6.211 2.251-6.211 6.384v3.562h-4.17v4.829h4.17v12.392z"></path>
</symbol>
<symbol id="icon-amazon" viewBox="0 0 105 32">
<path fill="#f90" style="fill: var(--color5, #f90)" d="M64.653 24.561c-6.055 4.468-14.833 6.845-22.392 6.845-10.595 0-20.134-3.916-27.353-10.434-0.567-0.513-0.061-1.211 0.62-0.815 7.788 4.533 17.421 7.262 27.37 7.262 6.711 0 14.087-1.393 20.876-4.271 1.024-0.435 1.883 0.674 0.88 1.415z"></path>
<path fill="#f90" style="fill: var(--color5, #f90)" d="M67.172 21.684c-0.775-0.991-5.119-0.469-7.071-0.236-0.59 0.071-0.683-0.445-0.15-0.819 3.466-2.435 9.146-1.731 9.806-0.917 0.664 0.823-0.174 6.516-3.423 9.233-0.5 0.417-0.976 0.195-0.753-0.356 0.73-1.827 2.366-5.912 1.591-6.904z"></path>
<path fill="#221f1f" style="fill: var(--color6, #221f1f)" d="M60.238 3.431v-2.366c0.001-0.361 0.272-0.6 0.6-0.599l10.602-0.001c0.338 0 0.611 0.247 0.611 0.597v2.029c-0.004 0.341-0.29 0.785-0.799 1.49l-5.491 7.841c2.038-0.047 4.195 0.259 6.047 1.3 0.417 0.233 0.529 0.581 0.562 0.922v2.525c0 0.346-0.38 0.751-0.781 0.541-3.263-1.71-7.593-1.897-11.201 0.020-0.369 0.197-0.754-0.201-0.754-0.548v-2.399c0-0.385 0.006-1.042 0.394-1.626l6.363-9.128-5.541-0.001c-0.338 0-0.611-0.242-0.612-0.595z"></path>
<path fill="#221f1f" style="fill: var(--color6, #221f1f)" d="M81.179 0.161c4.787 0 7.375 4.11 7.375 9.336 0 5.050-2.858 9.057-7.375 9.057-4.696 0-7.257-4.111-7.257-9.232 0-5.155 2.59-9.161 7.257-9.161zM81.208 3.54c-2.379 0-2.529 3.239-2.529 5.26 0 2.020-0.029 6.338 2.499 6.338 2.499 0 2.619-3.483 2.619-5.607 0-1.394-0.060-3.066-0.482-4.39-0.361-1.149-1.084-1.601-2.108-1.601z"></path>
<path fill="#221f1f" style="fill: var(--color6, #221f1f)" d="M51.787 10.299c0 1.257 0.031 2.305-0.603 3.422-0.513 0.907-1.328 1.467-2.232 1.467-1.238 0-1.961-0.943-1.961-2.339 0-2.748 2.465-3.247 4.797-3.247v0.698zM55.040 18.164c-0.212 0.191-0.603 0.197-0.762 0.074-1.101-0.852-1.849-2.148-1.849-2.148-1.771 1.804-3.025 2.346-5.317 2.346-2.716 0-4.828-1.678-4.828-5.028 0-2.618 1.418-4.4 3.441-5.271 1.749-0.77 4.194-0.908 6.064-1.118 0 0 0.157-2.021-0.392-2.758-0.425-0.571-1.146-0.838-1.81-0.838-1.196-0.005-2.352 0.646-2.582 1.898-0.065 0.357-0.329 0.659-0.608 0.628l-3.088-0.336c-0.237-0.027-0.557-0.27-0.482-0.674 0.719-3.792 4.143-4.938 7.214-4.938 1.568 0 3.62 0.418 4.858 1.607 1.568 1.467 1.418 3.42 1.418 5.551v5.024c0 1.512 0.627 2.175 1.217 2.989 0.205 0.295 0.252 0.642-0.010 0.857-0.66 0.552-2.482 2.136-2.482 2.136z"></path>
<path fill="#221f1f" style="fill: var(--color6, #221f1f)" d="M9.504 10.299c0 1.257 0.031 2.305-0.603 3.422-0.513 0.907-1.328 1.467-2.232 1.467-1.238 0-1.961-0.943-1.961-2.339 0-2.748 2.465-3.247 4.797-3.247v0.698zM12.757 18.164c-0.214 0.191-0.603 0.197-0.762 0.074-1.103-0.852-1.849-2.148-1.849-2.148-1.771 1.804-3.025 2.346-5.317 2.346-2.716 0-4.829-1.678-4.829-5.028 0-2.618 1.418-4.4 3.439-5.271 1.75-0.77 4.195-0.908 6.065-1.118 0 0 0.156-2.021-0.392-2.758-0.425-0.571-1.146-0.838-1.81-0.838-1.197-0.005-2.353 0.646-2.582 1.898-0.066 0.357-0.329 0.659-0.608 0.628l-3.088-0.336c-0.238-0.027-0.558-0.27-0.482-0.674 0.719-3.792 4.143-4.938 7.213-4.938 1.568 0 3.62 0.418 4.858 1.607 1.568 1.467 1.418 3.42 1.418 5.551v5.024c0 1.512 0.627 2.175 1.216 2.989 0.206 0.295 0.253 0.642-0.010 0.857-0.659 0.552-2.481 2.136-2.481 2.136z"></path>
<path fill="#221f1f" style="fill: var(--color6, #221f1f)" d="M22.189 8.835c0-1.917-0.090-4.564 2.227-4.564 2.288 0 1.987 2.717 1.987 4.564l0.004 8.776c0 0.317 0.256 0.575 0.579 0.594h3.222c0.343 0 0.622-0.265 0.622-0.595v-8.774c0-0.941-0.029-2.334 0.301-3.17s1.144-1.36 1.927-1.36c0.932 0 1.656 0.314 1.897 1.428 0.15 0.663 0.090 2.404 0.090 3.101l0.001 8.776c0 0.317 0.254 0.575 0.579 0.594h3.221c0.345 0 0.622-0.265 0.622-0.595l0.004-10.446c0-1.778 0.21-3.798-0.814-5.191-0.903-1.254-2.377-1.811-3.733-1.811-1.897 0-3.672 0.976-4.456 3.066-0.903-2.090-2.167-3.066-4.185-3.066-1.987 0-3.462 0.976-4.245 3.066h-0.061v-2.114c0-0.333-0.27-0.603-0.603-0.603h-3.010c-0.333 0-0.602 0.27-0.602 0.603v16.49c0 0.332 0.268 0.602 0.602 0.602h3.221c0.333 0 0.603-0.27 0.603-0.602v-8.768z"></path>
<path fill="#221f1f" style="fill: var(--color6, #221f1f)" d="M95.392 17.602c0 0.333-0.27 0.603-0.603 0.603h-3.221c-0.332 0-0.602-0.27-0.602-0.603v-16.49c0-0.332 0.27-0.603 0.602-0.603h2.978c0.35 0 0.603 0.281 0.603 0.472v2.524h0.062c0.903-2.264 2.167-3.344 4.395-3.344 1.447 0 2.861 0.523 3.764 1.951 0.845 1.323 0.845 3.553 0.845 5.155v10.416c-0.037 0.294-0.301 0.521-0.62 0.521h-3.234c-0.299-0.019-0.539-0.239-0.573-0.521l0.005-10.003c0-3.347-1.282-3.445-2.021-3.445-0.861 0-1.555 0.673-1.857 1.3-0.45 1.011-0.523 2.044-0.523 3.16v8.906z"></path>
</symbol>
<symbol id="icon-eero" viewBox="0 0 86 39">    <path d="M31.808 36.942A11.968 11.968 0 0 1 25.056 39a12.224 12.224 0 0 1-8.243-3.136c-.176-.156 0-.364.182-.247a16.438 16.438 0 0 0 14.546.903c.312-.13.566.201.267.422Z"/>
    <path d="M32.57 36.078c-.234-.299-1.544-.143-2.137-.071-.176 0-.202-.13-.046-.247 1.05-.727 2.763-.52 2.959-.273.195.247-.052 1.948-1.03 2.773-.15.123-.293.058-.228-.104.221-.552.71-1.78.482-2.078Zm-2.092-5.48v-.715a.176.176 0 0 1 .183-.181h3.18a.177.177 0 0 1 .17.11.176.176 0 0 1 .012.071v.61c0 .105-.084.234-.24.449l-1.656 2.357a3.515 3.515 0 0 1 1.825.39.324.324 0 0 1 .17.272v.76c0 .104-.118.227-.236.162a3.685 3.685 0 0 0-3.375 0c-.11.059-.228-.058-.228-.162v-.701a.84.84 0 0 1 .117-.487l1.929-2.76h-1.668a.176.176 0 0 1-.183-.175Zm6.321.032c-.716 0-.762.974-.762 1.578 0 .604 0 1.903.756 1.903s.788-1.046.788-1.682a4.453 4.453 0 0 0-.15-1.299.604.604 0 0 0-.651-.48l.02-.02Zm0-1.02c1.44 0 2.223 1.24 2.223 2.806 0 1.565-.86 2.72-2.223 2.72-1.362 0-2.19-1.233-2.19-2.772 0-1.54.783-2.753 2.19-2.753Zm-7.891 5.41a.215.215 0 0 1-.228 0 2.596 2.596 0 0 1-.56-.65 1.909 1.909 0 0 1-1.604.708 1.388 1.388 0 0 1-1.077-.422 1.376 1.376 0 0 1-.376-1.09 1.651 1.651 0 0 1 1.036-1.585 6.701 6.701 0 0 1 1.831-.332 1.741 1.741 0 0 0-.117-.83.697.697 0 0 0-.547-.254.751.751 0 0 0-.782.572c0 .11-.098.194-.183.188l-.932-.072a.177.177 0 0 1-.143-.137.175.175 0 0 1 0-.07c.215-1.137 1.251-1.48 2.176-1.48.531-.02 1.051.15 1.467.48.469.441.423 1.032.423 1.668v1.513c.003.336.136.657.372.897a.182.182 0 0 1 0 .253l-.75.65-.006-.007Zm-.978-2.364c.035.354-.028.711-.182 1.032a.793.793 0 0 1-.652.442c-.378 0-.593-.286-.593-.708 0-.824.743-.974 1.447-.974v.208h-.02ZM16.161 35.02a.215.215 0 0 1-.228 0 2.599 2.599 0 0 1-.56-.65 1.954 1.954 0 0 1-1.603.708 1.386 1.386 0 0 1-1.358-.914 1.372 1.372 0 0 1-.076-.573 1.645 1.645 0 0 1 1.036-1.584 6.701 6.701 0 0 1 1.831-.331 1.69 1.69 0 0 0-.123-.832.651.651 0 0 0-.541-.253.745.745 0 0 0-.782.572c0 .11-.098.194-.183.188l-.932-.098a.177.177 0 0 1-.143-.137.175.175 0 0 1 0-.07c.215-1.137 1.251-1.48 2.176-1.48.53-.021 1.048.15 1.46.48.476.441.43 1.032.43 1.668v1.513c-.003.33.115.649.333.897a.175.175 0 0 1 0 .253l-.75.65.013-.007Zm-.977-2.364c.035.354-.028.711-.183 1.032a.8.8 0 0 1-.651.442c-.372 0-.587-.286-.587-.708 0-.824.743-.974 1.447-.974v.208h-.026Zm3.819-.435c0-.578 0-1.37.651-1.37.652 0 .593.812.593 1.37v2.636a.175.175 0 0 0 .17.176h.97a.181.181 0 0 0 .19-.176v-2.636c-.02-.321.01-.643.09-.955a.65.65 0 0 1 .58-.409.51.51 0 0 1 .574.429c.023.311.023.624 0 .935v2.636a.182.182 0 0 0 .176.176h.971a.181.181 0 0 0 .19-.176v-3.143a2.589 2.589 0 0 0-.248-1.558 1.374 1.374 0 0 0-1.121-.545 1.391 1.391 0 0 0-1.35.922 1.3 1.3 0 0 0-1.257-.922 1.307 1.307 0 0 0-1.303.922v-.65a.182.182 0 0 0-.183-.175h-.84a.176.176 0 0 0-.183.175v4.955a.176.176 0 0 0 .183.182h.997a.175.175 0 0 0 .176-.182V32.24l-.026-.02Zm22.071 2.63a.176.176 0 0 1-.182.182h-.971a.183.183 0 0 1-.183-.182v-4.955a.182.182 0 0 1 .183-.175h.9a.177.177 0 0 1 .182.136v.76a1.299 1.299 0 0 1 1.303-1.006 1.307 1.307 0 0 1 1.134.59 3.14 3.14 0 0 1 .254 1.546v3.13a.175.175 0 0 1-.183.156h-.938a.176.176 0 0 1-.17-.156V31.87c0-1.006-.39-1.032-.612-1.032a.653.653 0 0 0-.56.39c-.12.3-.174.624-.157.947v2.676ZM3.213 35.02l-.079-.507a2.556 2.556 0 0 1-.775.46 2.308 2.308 0 0 1-.84.17 1.523 1.523 0 0 1-1.108-.396 1.364 1.364 0 0 1-.418-1.052 1.405 1.405 0 0 1 .509-1.137c.39-.296.872-.446 1.362-.422.416.006.83.063 1.231.17v-.65a.944.944 0 0 0-.24-.74 1.208 1.208 0 0 0-.815-.215 5.339 5.339 0 0 0-1.714.305v-.675c.27-.137.56-.233.86-.286.336-.07.68-.105 1.023-.104.486-.04.97.096 1.362.384a1.474 1.474 0 0 1 .443 1.168v3.526h-.801Zm-1.467-.605a2.305 2.305 0 0 0 1.35-.5v-.987a4.279 4.279 0 0 0-1.037-.13c-.73 0-1.101.286-1.101.845a.757.757 0 0 0 .208.571.801.801 0 0 0 .587.201h-.007Zm7.058.604v-3.298c.022-.271-.054-.54-.215-.76a.814.814 0 0 0-.652-.24c-.542.008-1.07.18-1.512.493v3.805h-.97v-4.935h.807l.098.546a3.22 3.22 0 0 1 1.955-.689 1.445 1.445 0 0 1 1.082.377 1.468 1.468 0 0 1 .371 1.104v3.623l-.964-.026Zm41.205-.188c-.405.2-.852.3-1.304.292a2.307 2.307 0 0 1-1.76-.65 3.239 3.239 0 0 1 0-3.81 2.32 2.32 0 0 1 1.78-.65c.426-.003.847.09 1.231.273v.688a3.634 3.634 0 0 0-1.081-.201 1.491 1.491 0 0 0-1.18.415c-.27.377-.398.837-.358 1.299v.123c-.038.463.092.923.365 1.299a1.456 1.456 0 0 0 1.153.416c.392-.007.781-.073 1.154-.195v.701Zm3.036.331a2.23 2.23 0 0 1-1.74-.688 3.24 3.24 0 0 1 0-3.844 2.534 2.534 0 0 1 3.474 0 3.24 3.24 0 0 1 0 3.844 2.209 2.209 0 0 1-1.734.688Zm0-.779c.913 0 1.375-.61 1.375-1.838 0-1.227-.462-1.824-1.375-1.824-.912 0-1.375.604-1.375 1.824 0 1.221.456 1.838 1.375 1.838Zm9.873.636v-3.35a1.146 1.146 0 0 0-.182-.715.704.704 0 0 0-.587-.233c-.51.009-1.006.16-1.434.435.004.05.004.1 0 .15v3.713h-.964v-3.35a1.185 1.185 0 0 0-.182-.715.704.704 0 0 0-.587-.233 2.653 2.653 0 0 0-1.427.428v3.896h-.965V30.11h.808l.098.5a3.266 3.266 0 0 1 1.825-.65 1.229 1.229 0 0 1 1.238.67 3.266 3.266 0 0 1 1.955-.689 1.36 1.36 0 0 1 1.036.377c.253.31.372.707.333 1.104v3.623l-.965-.026Zm2.392 2v-6.935h.808l.091.507a2.43 2.43 0 0 1 1.649-.65 1.811 1.811 0 0 1 1.492.65c.39.54.584 1.198.547 1.863a2.973 2.973 0 0 1-.58 1.949 1.856 1.856 0 0 1-1.531.72 2.168 2.168 0 0 1-1.512-.571v2.467h-.964Zm2.274-6.298a2.188 2.188 0 0 0-1.303.448v2.707c.37.295.829.46 1.303.468.9 0 1.342-.604 1.342-1.805a2.285 2.285 0 0 0-.325-1.37 1.148 1.148 0 0 0-1.017-.448Zm6.412 4.298-.078-.506a2.557 2.557 0 0 1-.775.46c-.27.11-.557.166-.847.17a1.537 1.537 0 0 1-1.108-.396 1.384 1.384 0 0 1-.41-1.052 1.405 1.405 0 0 1 .5-1.137 2.09 2.09 0 0 1 1.37-.422c.415.006.829.063 1.231.17v-.65a.971.971 0 0 0-.241-.74 1.208 1.208 0 0 0-.815-.215 5.345 5.345 0 0 0-1.72.305v-.675c.271-.137.56-.233.86-.286.337-.07.68-.104 1.023-.104.488-.038.973.098 1.369.384a1.473 1.473 0 0 1 .436 1.168v3.526h-.795Zm-1.466-.604a2.305 2.305 0 0 0 1.35-.5v-.987a4.28 4.28 0 0 0-1.037-.13c-.737 0-1.101.286-1.101.845a.756.756 0 0 0 .202.571.823.823 0 0 0 .586.201Zm7.045.604v-3.298c.02-.27-.053-.538-.209-.76a.814.814 0 0 0-.652-.24c-.542.008-1.07.18-1.511.493v3.805h-.965v-4.935h.808l.098.546a3.214 3.214 0 0 1 1.955-.689 1.459 1.459 0 0 1 1.088.377c.26.297.39.685.365 1.078v3.623h-.977Zm6.399-4.935-2.255 5.799c-.119.367-.33.698-.612.961a1.378 1.378 0 0 1-.906.292 2.085 2.085 0 0 1-.756-.136v-.688c.181.045.367.067.554.065a.843.843 0 0 0 .573-.182c.176-.183.304-.406.372-.65l.189-.493-1.994-4.98h1.036l1.427 4.038 1.375-4.039h.997v.013ZM19.367 10.143H2.81v-.091c.058-.58.194-1.15.404-1.695A9.098 9.098 0 0 1 7.168 3.5a7.842 7.842 0 0 1 4.119-1.007 8.348 8.348 0 0 1 3.16.604 8.097 8.097 0 0 1 2.574 1.637 7.792 7.792 0 0 1 1.714 2.39 6.81 6.81 0 0 1 .652 2.921l-.02.098ZM11.437 0C9.857-.021 8.29.286 6.836.902a11.242 11.242 0 0 0-3.623 2.526A11.41 11.41 0 0 0 .834 7.201 13.153 13.153 0 0 0 0 11.941c-.02 1.66.258 3.31.821 4.87a11.03 11.03 0 0 0 2.346 3.8 10.638 10.638 0 0 0 3.662 2.486c1.511.61 3.128.912 4.758.89 1.936.02 3.854-.366 5.63-1.136a10.058 10.058 0 0 0 4.242-3.676l-2.052-1.72a8.116 8.116 0 0 1-3.259 2.928 9.804 9.804 0 0 1-4.483 1.104 8.497 8.497 0 0 1-4.366-1.007A8.858 8.858 0 0 1 4.6 18.065a8.605 8.605 0 0 1-1.388-2.877 10.11 10.11 0 0 1-.378-2.435v-.09h19.341v-2.02a11.401 11.401 0 0 0-.717-3.896 10.382 10.382 0 0 0-2.052-3.429A10.242 10.242 0 0 0 16.07.902a11.145 11.145 0 0 0-4.633-.909V0Zm33.482 10.143H28.367v-.091c.059-.58.194-1.15.404-1.695a9.166 9.166 0 0 1 1.362-2.539 9.027 9.027 0 0 1 2.607-2.312A7.796 7.796 0 0 1 36.858 2.5c1.08-.006 2.152.2 3.154.604A8.027 8.027 0 0 1 42.62 4.74a7.726 7.726 0 0 1 1.648 2.39c.429.915.651 1.912.652 2.922v.09ZM36.995 0a11.439 11.439 0 0 0-4.607.902 11.216 11.216 0 0 0-3.61 2.52 11.306 11.306 0 0 0-2.38 3.773 13.017 13.017 0 0 0-.84 4.746 13.99 13.99 0 0 0 .815 4.87 11.13 11.13 0 0 0 2.352 3.8 10.637 10.637 0 0 0 3.663 2.486c1.51.61 3.127.912 4.757.89a13.78 13.78 0 0 0 5.63-1.136 10.038 10.038 0 0 0 4.23-3.676l-2.053-1.72a8.058 8.058 0 0 1-3.291 2.928 9.804 9.804 0 0 1-4.484 1.104 8.497 8.497 0 0 1-4.366-1.007 8.86 8.86 0 0 1-2.698-2.415 8.48 8.48 0 0 1-1.368-2.877 10.106 10.106 0 0 1-.378-2.435v-.09h19.367v-2.02a11.56 11.56 0 0 0-.69-3.896 10.382 10.382 0 0 0-2.053-3.429A10.307 10.307 0 0 0 41.66.902a11.19 11.19 0 0 0-4.633-.909L36.995 0Zm36.232 21.487a9.493 9.493 0 0 1-3.831-.753 8.962 8.962 0 0 1-2.926-2.04 8.67 8.67 0 0 1-1.838-3.012 11.08 11.08 0 0 1 0-7.377 8.76 8.76 0 0 1 1.838-3.02 8.949 8.949 0 0 1 2.926-2.032 10.121 10.121 0 0 1 7.663 0 8.63 8.63 0 0 1 2.92 2.025 8.59 8.59 0 0 1 1.85 3.027 11.08 11.08 0 0 1 0 7.377 8.72 8.72 0 0 1-1.844 3.013 8.895 8.895 0 0 1-2.926 2.039 9.471 9.471 0 0 1-3.832.753Zm0-21.487c-1.659-.01-3.305.296-4.848.902-1.432.554-2.73 1.401-3.812 2.487a11.527 11.527 0 0 0-2.476 3.8c-.601 1.53-.9 3.161-.88 4.804a12.74 12.74 0 0 0 .892 4.818 11.527 11.527 0 0 0 2.477 3.8 11.135 11.135 0 0 0 3.799 2.486c1.546.603 3.194.905 4.855.89a12.865 12.865 0 0 0 4.835-.89 11.193 11.193 0 0 0 3.814-2.488 11.146 11.146 0 0 0 2.5-3.798 13.448 13.448 0 0 0 0-9.636 11.393 11.393 0 0 0-2.501-3.799 11.324 11.324 0 0 0-3.82-2.474 12.865 12.865 0 0 0-4.835-.89V0ZM51.09 23.39h2.81V10.948a10.962 10.962 0 0 1 .449-3.188c.285-.95.759-1.834 1.394-2.598a6.352 6.352 0 0 1 2.379-1.74 8.367 8.367 0 0 1 3.317-.65V.176C58.18.24 55.606 1.24 53.827 3.136c-2.926 3.11-2.737 7.63-2.737 7.676V23.39Z"/></symbol>
</defs>
</svg>
